# xmcd CD Database Entry
#
# Track frame offsets:
# 150
# 18770
# 38125
# 57337
# 75722
# 91045
# 116542
# 135327
# 154834
# 172837
#
# Disc length: 2549 seconds
#
# Revision: 2
# Processed by: cddbd v1.4PL0 Copyright (c) Steve Scherf et al.
# Submitted via: tcd 2.0b
#
DISCID=6809f30a
DTITLE=TAKAGI BOO - Vintage (BOO¡Çs Hawaiian Songs)
DYEAR=1900
DGENRE=
TTITLE0=BEYOND THE REEF
TTITLE1=MY TANE
TTITLE2=HANALEI MOON
TTITLE3=THE PIDGIN ENGLISH HULA
TTITLE4=ON A LITTLE BAMBOO BRIDGE
TTITLE5=HAWAIIAN WEDDING SONG
TTITLE6=BLUE HAWAII
TTITLE7=E MAMA E
TTITLE8=CHANGE THE WORLD
TTITLE9=GOOD!(Hawaiian Version)
EXTD=
EXTT0=
EXTT1=
EXTT2=
EXTT3=
EXTT4=
EXTT5=
EXTT6=
EXTT7=
EXTT8=
EXTT9=
PLAYORDER=
